<mxfile host="app.diagrams.net" modified="2022-12-15T08:01:52.120Z" agent="5.0 (Windows NT 10.0; Win64; x64) AppleWebKit/537.36 (KHTML, like Gecko) Chrome/108.0.0.0 Safari/537.36" etag="YV_T0u8M92WLU-I9qXdL" version="20.5.1" type="github">
  <diagram name="Page-1" id="e7e014a7-5840-1c2e-5031-d8a46d1fe8dd">
    <mxGraphModel dx="2076" dy="1174" grid="1" gridSize="10" guides="1" tooltips="1" connect="1" arrows="1" fold="1" page="1" pageScale="1" pageWidth="1169" pageHeight="826" background="none" math="0" shadow="0">
      <root>
        <mxCell id="0" />
        <mxCell id="1" parent="0" />
        <mxCell id="3" value="Divisi Marketing" style="swimlane;whiteSpace=wrap" parent="1" vertex="1">
          <mxGeometry x="444.5" y="128" width="280" height="812" as="geometry" />
        </mxCell>
        <mxCell id="9FE2M8BV05elYn0Ajq-i-55" style="edgeStyle=orthogonalEdgeStyle;rounded=0;orthogonalLoop=1;jettySize=auto;html=1;entryX=0.5;entryY=0;entryDx=0;entryDy=0;" edge="1" parent="3" source="9FE2M8BV05elYn0Ajq-i-46" target="9FE2M8BV05elYn0Ajq-i-48">
          <mxGeometry relative="1" as="geometry" />
        </mxCell>
        <mxCell id="9FE2M8BV05elYn0Ajq-i-46" value="Marketing membuat permintaan pembelian klien" style="rounded=1;whiteSpace=wrap;html=1;" vertex="1" parent="3">
          <mxGeometry x="80.5" y="122" width="120" height="60" as="geometry" />
        </mxCell>
        <mxCell id="9FE2M8BV05elYn0Ajq-i-48" value="Manager melakukan approval pembelian" style="rounded=1;whiteSpace=wrap;html=1;" vertex="1" parent="3">
          <mxGeometry x="80" y="212" width="120" height="60" as="geometry" />
        </mxCell>
        <mxCell id="4" value="Divisi Finance" style="swimlane;whiteSpace=wrap;startSize=23;" parent="1" vertex="1">
          <mxGeometry x="724.5" y="128" width="280" height="812" as="geometry" />
        </mxCell>
        <mxCell id="9FE2M8BV05elYn0Ajq-i-57" style="edgeStyle=orthogonalEdgeStyle;rounded=0;orthogonalLoop=1;jettySize=auto;html=1;" edge="1" parent="4" source="9FE2M8BV05elYn0Ajq-i-49" target="9FE2M8BV05elYn0Ajq-i-53">
          <mxGeometry relative="1" as="geometry" />
        </mxCell>
        <mxCell id="9FE2M8BV05elYn0Ajq-i-49" value="Finance membuat Permintaan pembayaran ke klien" style="rounded=1;whiteSpace=wrap;html=1;" vertex="1" parent="4">
          <mxGeometry x="85.5" y="212" width="120" height="60" as="geometry" />
        </mxCell>
        <mxCell id="9FE2M8BV05elYn0Ajq-i-51" value="Pembayaran di verifikasi dan akan di teruskan ke bagian produksi" style="rounded=1;whiteSpace=wrap;html=1;" vertex="1" parent="4">
          <mxGeometry x="85.5" y="412" width="120" height="60" as="geometry" />
        </mxCell>
        <mxCell id="9FE2M8BV05elYn0Ajq-i-53" value="Manager melakukan approval permintaan pembayaran" style="rounded=1;whiteSpace=wrap;html=1;" vertex="1" parent="4">
          <mxGeometry x="85.5" y="312" width="120" height="60" as="geometry" />
        </mxCell>
        <mxCell id="9FE2M8BV05elYn0Ajq-i-41" value="Divisi Produksi" style="swimlane;whiteSpace=wrap;startSize=23;" vertex="1" parent="1">
          <mxGeometry x="1004.5" y="128" width="280" height="812" as="geometry" />
        </mxCell>
        <mxCell id="9FE2M8BV05elYn0Ajq-i-64" style="edgeStyle=orthogonalEdgeStyle;rounded=0;orthogonalLoop=1;jettySize=auto;html=1;entryX=0.5;entryY=0;entryDx=0;entryDy=0;" edge="1" parent="9FE2M8BV05elYn0Ajq-i-41" source="9FE2M8BV05elYn0Ajq-i-52" target="9FE2M8BV05elYn0Ajq-i-61">
          <mxGeometry relative="1" as="geometry" />
        </mxCell>
        <mxCell id="9FE2M8BV05elYn0Ajq-i-52" value="Bagian produksi melakukan pemasangan iklan" style="rounded=1;whiteSpace=wrap;html=1;" vertex="1" parent="9FE2M8BV05elYn0Ajq-i-41">
          <mxGeometry x="85.5" y="412" width="120" height="60" as="geometry" />
        </mxCell>
        <mxCell id="9FE2M8BV05elYn0Ajq-i-67" style="edgeStyle=orthogonalEdgeStyle;rounded=0;orthogonalLoop=1;jettySize=auto;html=1;entryX=0.5;entryY=0;entryDx=0;entryDy=0;" edge="1" parent="9FE2M8BV05elYn0Ajq-i-41" source="9FE2M8BV05elYn0Ajq-i-61" target="9FE2M8BV05elYn0Ajq-i-66">
          <mxGeometry relative="1" as="geometry" />
        </mxCell>
        <mxCell id="9FE2M8BV05elYn0Ajq-i-61" value="Bagian produksi melakukan pemasangan iklan" style="rounded=1;whiteSpace=wrap;html=1;" vertex="1" parent="9FE2M8BV05elYn0Ajq-i-41">
          <mxGeometry x="85.5" y="512" width="120" height="60" as="geometry" />
        </mxCell>
        <mxCell id="9FE2M8BV05elYn0Ajq-i-66" value="Bagian Produksi akan di teruskan ke klien" style="rounded=1;whiteSpace=wrap;html=1;" vertex="1" parent="9FE2M8BV05elYn0Ajq-i-41">
          <mxGeometry x="85.5" y="602" width="120" height="60" as="geometry" />
        </mxCell>
        <mxCell id="9FE2M8BV05elYn0Ajq-i-42" value="&lt;h1&gt;FLOW BERJALAN DI PT PRISMA&lt;/h1&gt;" style="text;html=1;strokeColor=none;fillColor=none;spacing=5;spacingTop=-20;whiteSpace=wrap;overflow=hidden;rounded=0;" vertex="1" parent="1">
          <mxGeometry x="165" y="90" width="420" height="38" as="geometry" />
        </mxCell>
        <mxCell id="9FE2M8BV05elYn0Ajq-i-43" value="Klien" style="swimlane;whiteSpace=wrap" vertex="1" parent="1">
          <mxGeometry x="164.5" y="128" width="280" height="812" as="geometry" />
        </mxCell>
        <mxCell id="9FE2M8BV05elYn0Ajq-i-44" value="Klien melakukan proses Permintaan pemasangan Iklan" style="rounded=1;whiteSpace=wrap;html=1;" vertex="1" parent="9FE2M8BV05elYn0Ajq-i-43">
          <mxGeometry x="80" y="122" width="120" height="60" as="geometry" />
        </mxCell>
        <mxCell id="9FE2M8BV05elYn0Ajq-i-62" style="edgeStyle=orthogonalEdgeStyle;rounded=0;orthogonalLoop=1;jettySize=auto;html=1;" edge="1" parent="9FE2M8BV05elYn0Ajq-i-43" source="9FE2M8BV05elYn0Ajq-i-45" target="9FE2M8BV05elYn0Ajq-i-44">
          <mxGeometry relative="1" as="geometry" />
        </mxCell>
        <mxCell id="9FE2M8BV05elYn0Ajq-i-45" value="" style="ellipse;whiteSpace=wrap;html=1;aspect=fixed;fillColor=#0F0F0F;" vertex="1" parent="9FE2M8BV05elYn0Ajq-i-43">
          <mxGeometry x="120" y="42" width="40" height="40" as="geometry" />
        </mxCell>
        <mxCell id="9FE2M8BV05elYn0Ajq-i-50" value="Klien melakukan proses pembayaran" style="rounded=1;whiteSpace=wrap;html=1;" vertex="1" parent="9FE2M8BV05elYn0Ajq-i-43">
          <mxGeometry x="80" y="312" width="120" height="60" as="geometry" />
        </mxCell>
        <mxCell id="9FE2M8BV05elYn0Ajq-i-47" value="Divisi Canvasser" style="swimlane;whiteSpace=wrap;startSize=23;" vertex="1" parent="1">
          <mxGeometry x="1284.5" y="128" width="280" height="812" as="geometry" />
        </mxCell>
        <mxCell id="9FE2M8BV05elYn0Ajq-i-63" value="Bagian Canvasser melakukan dokumentasi titik ke dalam sistem" style="rounded=1;whiteSpace=wrap;html=1;" vertex="1" parent="9FE2M8BV05elYn0Ajq-i-47">
          <mxGeometry x="80" y="512" width="120" height="60" as="geometry" />
        </mxCell>
        <mxCell id="9FE2M8BV05elYn0Ajq-i-54" style="edgeStyle=orthogonalEdgeStyle;rounded=0;orthogonalLoop=1;jettySize=auto;html=1;entryX=0;entryY=0.5;entryDx=0;entryDy=0;" edge="1" parent="1" source="9FE2M8BV05elYn0Ajq-i-44" target="9FE2M8BV05elYn0Ajq-i-46">
          <mxGeometry relative="1" as="geometry">
            <mxPoint x="410" y="280" as="targetPoint" />
          </mxGeometry>
        </mxCell>
        <mxCell id="9FE2M8BV05elYn0Ajq-i-56" style="edgeStyle=orthogonalEdgeStyle;rounded=0;orthogonalLoop=1;jettySize=auto;html=1;entryX=0;entryY=0.5;entryDx=0;entryDy=0;" edge="1" parent="1" source="9FE2M8BV05elYn0Ajq-i-48" target="9FE2M8BV05elYn0Ajq-i-49">
          <mxGeometry relative="1" as="geometry" />
        </mxCell>
        <mxCell id="9FE2M8BV05elYn0Ajq-i-58" style="edgeStyle=orthogonalEdgeStyle;rounded=0;orthogonalLoop=1;jettySize=auto;html=1;" edge="1" parent="1" source="9FE2M8BV05elYn0Ajq-i-53" target="9FE2M8BV05elYn0Ajq-i-50">
          <mxGeometry relative="1" as="geometry" />
        </mxCell>
        <mxCell id="9FE2M8BV05elYn0Ajq-i-59" style="edgeStyle=orthogonalEdgeStyle;rounded=0;orthogonalLoop=1;jettySize=auto;html=1;entryX=0;entryY=0.5;entryDx=0;entryDy=0;" edge="1" parent="1" source="9FE2M8BV05elYn0Ajq-i-50" target="9FE2M8BV05elYn0Ajq-i-51">
          <mxGeometry relative="1" as="geometry">
            <Array as="points">
              <mxPoint x="305" y="570" />
            </Array>
          </mxGeometry>
        </mxCell>
        <mxCell id="9FE2M8BV05elYn0Ajq-i-60" style="edgeStyle=orthogonalEdgeStyle;rounded=0;orthogonalLoop=1;jettySize=auto;html=1;entryX=0;entryY=0.5;entryDx=0;entryDy=0;" edge="1" parent="1" source="9FE2M8BV05elYn0Ajq-i-51" target="9FE2M8BV05elYn0Ajq-i-52">
          <mxGeometry relative="1" as="geometry" />
        </mxCell>
        <mxCell id="9FE2M8BV05elYn0Ajq-i-65" style="edgeStyle=orthogonalEdgeStyle;rounded=0;orthogonalLoop=1;jettySize=auto;html=1;entryX=0;entryY=0.5;entryDx=0;entryDy=0;" edge="1" parent="1" source="9FE2M8BV05elYn0Ajq-i-61" target="9FE2M8BV05elYn0Ajq-i-63">
          <mxGeometry relative="1" as="geometry" />
        </mxCell>
        <mxCell id="9FE2M8BV05elYn0Ajq-i-68" value="Staff Kantor" style="swimlane;whiteSpace=wrap;startSize=23;" vertex="1" parent="1">
          <mxGeometry x="1564.5" y="128" width="280" height="812" as="geometry" />
        </mxCell>
        <mxCell id="9FE2M8BV05elYn0Ajq-i-75" style="edgeStyle=orthogonalEdgeStyle;rounded=0;orthogonalLoop=1;jettySize=auto;html=1;entryX=0.5;entryY=0;entryDx=0;entryDy=0;fontSize=14;" edge="1" parent="9FE2M8BV05elYn0Ajq-i-68" source="9FE2M8BV05elYn0Ajq-i-69" target="9FE2M8BV05elYn0Ajq-i-73">
          <mxGeometry relative="1" as="geometry" />
        </mxCell>
        <mxCell id="9FE2M8BV05elYn0Ajq-i-69" value="Staff kantor melakukan validasi&amp;nbsp;" style="rounded=1;whiteSpace=wrap;html=1;" vertex="1" parent="9FE2M8BV05elYn0Ajq-i-68">
          <mxGeometry x="89.5" y="512" width="120" height="60" as="geometry" />
        </mxCell>
        <mxCell id="9FE2M8BV05elYn0Ajq-i-73" value="" style="ellipse;whiteSpace=wrap;html=1;aspect=fixed;labelBorderColor=#FFFFFF;sketch=0;fontSize=14;" vertex="1" parent="9FE2M8BV05elYn0Ajq-i-68">
          <mxGeometry x="115.5" y="672" width="68" height="68" as="geometry" />
        </mxCell>
        <mxCell id="9FE2M8BV05elYn0Ajq-i-71" value="" style="ellipse;whiteSpace=wrap;html=1;aspect=fixed;fillColor=#000000;labelBorderColor=#FFFFFF;fontSize=14;sketch=0;verticalAlign=bottom;" vertex="1" parent="9FE2M8BV05elYn0Ajq-i-68">
          <mxGeometry x="129.5" y="686" width="40" height="40" as="geometry" />
        </mxCell>
        <mxCell id="9FE2M8BV05elYn0Ajq-i-70" style="edgeStyle=orthogonalEdgeStyle;rounded=0;orthogonalLoop=1;jettySize=auto;html=1;" edge="1" parent="1" source="9FE2M8BV05elYn0Ajq-i-63" target="9FE2M8BV05elYn0Ajq-i-69">
          <mxGeometry relative="1" as="geometry" />
        </mxCell>
        <mxCell id="9FE2M8BV05elYn0Ajq-i-72" style="edgeStyle=orthogonalEdgeStyle;rounded=0;orthogonalLoop=1;jettySize=auto;html=1;entryX=0;entryY=0.5;entryDx=0;entryDy=0;" edge="1" parent="1" source="9FE2M8BV05elYn0Ajq-i-66" target="9FE2M8BV05elYn0Ajq-i-71">
          <mxGeometry relative="1" as="geometry">
            <Array as="points">
              <mxPoint x="1150" y="834" />
            </Array>
          </mxGeometry>
        </mxCell>
        <mxCell id="9FE2M8BV05elYn0Ajq-i-76" value="" style="rounded=0;whiteSpace=wrap;html=1;labelBorderColor=#FFFFFF;sketch=0;fontSize=14;fillColor=none;" vertex="1" parent="1">
          <mxGeometry x="90" y="60" width="1860" height="940" as="geometry" />
        </mxCell>
      </root>
    </mxGraphModel>
  </diagram>
</mxfile>
